<svg xmlns="http://www.w3.org/2000/svg" width="256" height="256"><path fill-opacity=".016" d="M0 128.004v128.004l128.25-.254 128.25-.254.254-127.75L257.008 0H0v128.004m.485.496c0 70.4.119 99.053.265 63.672.146-35.38.146-92.98 0-128C.604 29.153.485 58.1.485 128.5" fill="#1976D2" fill-rule="evenodd"/><path fill-opacity=".45" d="M2 2C.022 3.978 0 5.333 0 127.545v123.546l2.455 2.454L4.909 256h245.854l3.118-3.19 3.119-3.19V126.251c0-69.304-.38-123.134-.866-122.834-.477.295-1.672-.354-2.655-1.441C251.715.028 249.927 0 127.845 0 5.333 0 3.978.022 2 2M.485 127.5c0 68.2.119 95.953.265 61.672.146-34.28.146-90.08 0-124C.604 31.253.484 59.3.485 127.5M15 128v113h226V15H15v113m190.625-49.067-7.876.567-6.624 16.235c-3.644 8.93-6.85 16.229-7.125 16.222-.275-.007-3.155-6.413-6.401-14.235-3.246-7.822-6.309-14.749-6.808-15.394-.566-.732-2.854-1.018-6.099-.762-2.855.225-9.58.682-14.943 1.015-5.363.333-9.561.915-9.327 1.293.233.377 5.723 4.048 12.2 8.156l11.776 7.47-12.42 1.299c-6.831.714-12.698 1.748-13.037 2.297-.744 1.203-3.389 71.79-2.716 72.463.553.552 27.222-5.191 30.525-6.574 2.172-.909 2.253-1.423 2.349-14.714.055-7.574.392-17.501.75-22.06l.651-8.29 5.886 13.79c3.237 7.584 6.216 14.158 6.619 14.608.404.451 3.696-6.524 7.317-15.5l6.584-16.319.047 20.75c.038 16.847.304 20.75 1.413 20.75 1.81 0 23.774-4.968 24.819-5.614.98-.606 1.059-30.203.154-58.136L222.683 78l-4.592.183c-2.525.101-8.135.439-12.466.75m-88.864 5.52c-9.207.656-16.909 1.385-17.115 1.62-.206.235-4.429 7.324-9.384 15.753l-9.01 15.327-7.211-13.827c-3.967-7.604-7.561-14.19-7.986-14.636C65.202 87.799 20 90.058 20 90.992c0 .32 8.407 4.607 18.683 9.528 21.074 10.093 20.861 9.332 3.067 10.947-4.263.387-7.75 1.083-7.75 1.546 0 .463 4.878 8.412 10.84 17.665 5.962 9.252 11.352 17.787 11.978 18.965.862 1.624.754 7.158-.446 22.811-.871 11.367-1.37 20.881-1.108 21.143.511.511 40.739-8.267 41.536-9.064.262-.262 1.031-9.392 1.709-20.289l1.232-19.813 18.129-29.773C127.842 98.282 136 84.46 136 83.942c0-.518-.562-.883-1.25-.812-.687.072-8.783.667-17.989 1.323" fill="#1976D2" fill-rule="evenodd"/><path fill-opacity=".449" d="M2.455 2.455 0 4.909v245.245l2.923 2.923L5.846 256h244.418l3.368-3.571 3.368-3.571V126.262c0-67.427-.252-122.343-.561-122.035-.308.309-1.637-.516-2.954-1.833L251.091 0H4.909L2.455 2.455M.484 127.5c0 67.65.12 95.472.266 61.827.146-33.644.146-88.994 0-123C.604 32.322.484 59.85.484 127.5M14.667 14.667c-.367.366-.667 51.441-.667 113.5V241h227V14H128.167c-62.059 0-113.134.3-113.5.667m194.181 64.359c-5.308.404-10.039.974-10.513 1.267-.474.293-3.781 7.77-7.348 16.616-3.568 8.845-6.712 16.074-6.987 16.063-.275-.01-3.424-7.039-6.998-15.618l-6.498-15.598-14.502.714c-13.43.661-17.037 1.206-14.502 2.193.55.214 6.091 3.691 12.313 7.726l11.312 7.337-4.812.592c-2.647.326-8.526.896-13.063 1.266-4.537.371-8.26.729-8.272.795-.073.391-2.93 68.521-2.952 70.371-.034 2.933.583 2.902 17.628-.891 13.983-3.111 14.161-3.185 14.75-6.129.328-1.639.596-11.924.596-22.855 0-10.931.338-19.868.75-19.86.412.009 2.529 4.171 4.704 9.25 8.651 20.208 8.643 20.193 9.604 18.677.502-.793 3.453-7.967 6.557-15.942 3.103-7.975 6.065-14.95 6.581-15.5.586-.624.82 6.949.621 20.164-.174 11.64-.076 21.406.22 21.703.295.297 5.92-.68 12.5-2.171l11.963-2.71.262-39.243.261-39.243-2.261.145c-1.244.08-6.605.477-11.914.881m-96.714 6.054c-5.701.437-10.876.991-11.5 1.23-.624.24-5.152 7.22-10.062 15.512-4.911 8.291-9.313 14.838-9.783 14.548-.47-.291-3.744-6.23-7.277-13.199-3.532-6.969-6.801-13.224-7.263-13.899-.662-.968-5.451-.924-22.673.212-12.008.791-22.002 1.608-22.209 1.815-.207.207 7.98 4.366 18.193 9.243 13.353 6.376 18.059 9.055 16.754 9.537-.998.369-6.455 1.002-12.128 1.408-7.051.504-10.175 1.098-9.874 1.875.241.626 5.67 9.222 12.063 19.102C54.76 145.421 58 151.28 58 153.486c0 1.683-.673 11.339-1.495 21.458-.823 10.119-1.385 18.51-1.249 18.646.449.449 40.228-8.749 40.996-9.479.413-.393 1.255-9.241 1.87-19.663.718-12.165 1.617-19.923 2.51-21.671.766-1.498 8.865-14.998 17.999-30a19928.62 19928.62 0 0 0 17.047-28.027c.527-.899-9.328-.761-23.544.33" fill="#1976D2" fill-rule="evenodd"/><path fill-opacity=".974" d="M5.323.681C.285 1.697.518-4.072.238 126.403-.02 246.92.003 248.542 1.974 251.75L3.971 255h123.323c97.186 0 123.644-.265 124.835-1.25.831-.687 2.267-2.472 3.191-3.965 1.549-2.502 1.68-11.986 1.68-121.282 0-97.063-.244-119.151-1.345-121.785C252.848.003 263.022.513 129.097.371 62.218.3 6.52.439 5.323.681M.484 129.5c0 66 .12 93.147.266 60.327.146-32.82.146-86.82 0-120C.604 36.647.484 63.5.484 129.5m13.762-1.75L14.5 241.5h227l.254-113.75.255-113.75H13.991l.255 113.75m189.107-48.016-5.148.363-6.74 16.452c-3.707 9.048-7.025 16.451-7.374 16.451-.349 0-3.57-6.862-7.158-15.25L170.41 82.5l-12.955.364c-7.125.201-13.532.677-14.238 1.059-.812.439 2.97 3.377 10.3 8.002 6.371 4.019 11.353 7.538 11.071 7.82-.282.282-5.946 1.072-12.588 1.755-6.642.683-12.258 1.425-12.481 1.647-.458.458-3.315 71.154-2.898 71.714.148.199 7.156-1.158 15.574-3.015l15.305-3.376.644-8.985c.354-4.942.692-15.397.75-23.235.058-7.838.444-14.244.856-14.237.412.007 3.363 6.209 6.556 13.781 3.193 7.573 6.155 14.334 6.582 15.025.479.774 3.238-5.077 7.194-15.256 3.53-9.082 6.756-16.524 7.168-16.538.412-.014.75 9.584.75 21.328v21.353l10.25-2.308c5.637-1.27 11.262-2.563 12.5-2.873l2.25-.563V79l-7.25.185c-3.988.102-9.566.349-12.397.549M126.5 84.508c-.55.193-6.699.65-13.664 1.017l-12.665.666-9.1 15.405C86.065 110.068 81.605 117 81.16 117c-.446 0-4.1-6.358-8.12-14.128l-7.31-14.128-15.115.75c-8.313.412-18.326 1.032-22.25 1.377l-7.135.629 18.081 8.587c9.944 4.722 18.234 9.047 18.421 9.609.204.613-3.178 1.295-8.445 1.701-4.833.373-10.197.926-11.921 1.23l-3.134.552 12.086 18.66L58.405 150.5l-.278 6c-.153 3.3-.81 12.863-1.46 21.25-.848 10.954-.874 15.25-.091 15.25 1.183 0 30.621-6.486 36.571-8.058l3.646-.963.695-14.74c1.213-25.757-.08-22.149 19.402-54.146 9.508-15.616 17.521-29 17.806-29.743.382-.997-.491-1.329-3.339-1.271-2.121.043-4.307.237-4.857.429" fill="#1976D2" fill-rule="evenodd"/></svg>