<?xml version="1.0" standalone="no"?>
<!DOCTYPE svg PUBLIC "-//W3C//DTD SVG 20010904//EN"
 "http://www.w3.org/TR/2001/REC-SVG-20010904/DTD/svg10.dtd">
<svg version="1.0" xmlns="http://www.w3.org/2000/svg"
 width="1000.000000pt" height="1000.000000pt" viewBox="0 0 1000.000000 1000.000000"
 preserveAspectRatio="xMidYMid meet">

<g transform="translate(0.000000,1000.000000) scale(0.100000,-0.100000)"
fill="#FFFFFF" stroke="none">
<path d="M719 9636 c-90 -24 -160 -98 -179 -189 -7 -37 -9 -1321 -8 -4312 l3
-4260 23 -46 c33 -67 86 -124 140 -151 l47 -23 4285 0 4285 0 47 23 c54 27
107 84 140 151 l23 46 0 4285 0 4285 -23 47 c-30 60 -91 113 -157 136 -47 16
-303 17 -4315 19 -3354 1 -4275 -1 -4311 -11z m8301 -4486 l0 -3990 -3990 0
-3990 0 0 3990 0 3990 3990 0 3990 0 0 -3990z"/>
<path d="M8197 6884 c-1 -1 -60 -5 -132 -9 -71 -4 -141 -8 -155 -10 -14 -1
-86 -6 -160 -10 -74 -4 -146 -9 -160 -10 -14 -2 -41 -4 -61 -4 -37 -1 -37 -1
-72 -88 -19 -49 -126 -308 -237 -578 -111 -269 -204 -496 -207 -502 -9 -22
-18 -14 -35 30 -9 23 -43 105 -76 182 -33 77 -130 306 -216 510 -86 203 -160
372 -164 376 -7 8 -1059 -55 -1068 -63 -2 -3 194 -130 436 -283 243 -153 443
-282 446 -287 3 -4 -3 -8 -13 -8 -28 0 -865 -80 -889 -85 -25 -6 -20 73 -59
-970 -14 -363 -27 -721 -31 -795 -14 -317 -31 -805 -28 -811 2 -3 139 25 306
62 167 38 419 94 560 125 141 31 261 60 266 63 5 3 12 164 16 356 4 193 11
519 16 725 5 206 10 420 10 475 0 61 4 95 9 90 6 -6 114 -253 241 -550 128
-297 235 -543 239 -548 4 -4 114 266 245 600 132 335 243 615 248 623 6 9 7
-287 4 -762 -4 -503 -2 -778 4 -778 10 0 135 27 350 74 358 80 527 118 543
122 16 5 17 50 12 862 -3 471 -8 997 -10 1167 -2 171 -4 401 -5 513 l0 203
-85 -2 c-47 -2 -86 -4 -88 -5z"/>
<path d="M4621 6660 c-454 -29 -575 -40 -582 -51 -4 -8 -151 -257 -326 -554
-175 -297 -322 -539 -327 -538 -11 2 -87 146 -421 798 -59 116 -113 215 -119
221 -8 9 -63 8 -216 -2 -428 -28 -1338 -84 -1370 -84 -23 0 -31 -3 -24 -10 6
-6 318 -156 694 -335 376 -178 677 -326 669 -329 -12 -4 -847 -86 -878 -86 -9
0 -9 -5 -1 -21 7 -11 201 -312 433 -667 259 -398 423 -659 425 -677 2 -16 -4
-120 -13 -230 -9 -110 -20 -254 -25 -320 -78 -1002 -74 -945 -67 -945 10 0
129 26 567 125 234 52 529 118 655 147 127 28 234 54 239 59 10 9 13 56 60
914 15 259 31 481 37 494 6 14 298 496 650 1073 351 576 639 1050 639 1053 0
9 -110 4 -699 -35z"/>
</g>
</svg>
