<svg xmlns="http://www.w3.org/2000/svg" width="256" height="256"><path fill-opacity=".016" d="M0 128.004v128.004l128.25-.254 128.25-.254.254-127.75L257.008 0H0v128.004m.485.496c0 70.4.119 99.053.265 63.672.146-35.38.146-92.98 0-128C.604 29.153.485 58.1.485 128.5" fill="#1976D2" fill-rule="evenodd"/><path fill-opacity=".458" d="M2 2C.022 3.978 0 5.333 0 127.354v123.354l2.452 2.646L4.905 256h245.703l3.196-3.298 3.196-3.297V126.036c0-67.853-.285-123.084-.634-122.735-.349.348-1.759-.252-3.135-1.334C250.775.035 248.531 0 127.365 0 5.333 0 3.978.022 2 2M.485 127.5c0 68.2.119 95.953.265 61.672.146-34.28.146-90.08 0-124C.604 31.253.484 59.3.485 127.5M15 128v113h226V15H15v113m190.829-49.084c-4.218.321-7.857.809-8.084 1.084-.228.275-3.302 7.585-6.83 16.244-3.528 8.659-6.64 15.742-6.915 15.74-.275-.002-3.112-6.246-6.304-13.876-3.192-7.63-6.342-14.547-7-15.372-1.021-1.28-3.171-1.371-14.696-.621-7.425.482-14.17.997-14.989 1.143-.818.146 4.107 3.86 10.945 8.254L164.39 99.5l-5.945.673c-3.27.37-8.969.967-12.664 1.326-6.604.642-6.727.708-7.212 3.827-.682 4.391-2.925 69.651-2.412 70.165.522.521 30.09-5.908 31.676-6.888.794-.49 1.209-5.423 1.298-15.412.072-8.08.409-17.998.75-22.041l.619-7.35 5.916 13.85c3.254 7.618 6.233 14.219 6.62 14.669.386.451 3.665-6.524 7.286-15.5l6.584-16.319.047 20.75c.043 19.109.185 20.744 1.797 20.67.963-.045 6.925-1.282 13.25-2.75l11.5-2.67.334-7c.184-3.85.02-21.512-.365-39.25l-.7-32.25-4.634.166c-2.549.091-8.087.428-12.306.75m-89.131 5.599c-9.241.69-16.937 1.419-17.103 1.62-.166.201-4.365 7.279-9.331 15.73l-9.029 15.366-7.691-14.616L65.853 88l-3.677.023c-2.022.012-9.076.439-15.676.947-6.6.509-15.055 1.02-18.789 1.137-3.734.116-6.966.496-7.181.845-.216.349 7.983 4.657 18.219 9.573 21.015 10.095 20.85 9.491 3.001 10.993-4.263.359-7.75 1.024-7.75 1.477 0 .454 5.418 9.204 12.04 19.444l12.041 18.62-1.658 21.02c-.911 11.561-1.434 21.244-1.16 21.517.489.489 40.783-8.309 41.546-9.072.216-.216.952-9.309 1.636-20.208l1.243-19.816 17.615-29.061c18.992-31.334 19.63-32.508 17.554-32.309-.746.071-8.918.695-18.159 1.385" fill="#1976D2" fill-rule="evenodd"/><path fill-opacity=".397" d="M2.455 2.455 0 4.909v245.245l2.923 2.923L5.846 256h244.418l3.368-3.571 3.368-3.571V126.37c0-81.404-.335-122.281-1-121.87-.55.34-1 .153-1-.415 0-.569-1.328-1.72-2.95-2.559C249.452.183 234.491 0 127.004 0H4.909L2.455 2.455M.484 127.5c0 67.65.12 95.472.266 61.827.146-33.644.146-88.994 0-123C.604 32.322.484 59.85.484 127.5M14.671 14.662c-.369.369-.671 51.446-.671 113.505V241H242.009l-.255-113.25L241.5 14.5l-113.079-.254c-62.194-.14-113.381.047-113.75.416m194.9 64.458c-6.011.461-11.23 1.185-11.597 1.609-.368.424-3.55 7.856-7.071 16.515-3.522 8.659-6.628 15.741-6.903 15.739-.275-.002-3.397-6.975-6.938-15.494L170.624 82l-6.062.106c-3.334.058-10.112.4-15.062.76l-9 .655 12.333 8.1 12.332 8.099-4.832.609c-2.658.334-8.333.91-12.611 1.28-4.278.369-8.013 1.053-8.301 1.519-.288.466-.93 11.541-1.426 24.61-.496 13.069-1.188 29.049-1.536 35.512-.511 9.454-.373 11.755.703 11.776.736.015 7.924-1.402 15.972-3.149l14.635-3.175.615-4.49c.339-2.47.616-13.068.616-23.552 0-11.008.371-18.659.879-18.11.483.522 3.473 7.025 6.645 14.45 3.171 7.425 6.092 13.869 6.49 14.319.398.45 3.307-5.625 6.464-13.5 3.157-7.875 6.254-15.444 6.881-16.819.912-1.998 1.241 1.831 1.641 19.081l.5 21.581 12-2.581 12-2.581.262-39.25c.207-31.123 0-39.221-1-39.109-.694.077-6.18.518-12.191.979M120.5 84.657c-2.2.177-7.72.592-12.266.923l-8.266.602-9.085 15.409c-4.997 8.475-9.377 15.402-9.734 15.393-.357-.009-3.986-6.539-8.065-14.511l-7.416-14.495-6.084.535c-3.346.294-13.244.972-21.996 1.506-8.752.534-16.056 1.116-16.233 1.293-.177.177 8.037 4.316 18.252 9.199 14.08 6.73 18.107 9.051 16.644 9.592-1.062.393-6.528 1.04-12.147 1.438-6.866.487-10.075 1.091-9.787 1.842.236.614 4.688 7.642 9.894 15.617 5.206 7.975 10.517 16.337 11.803 18.582l2.338 4.083-1.606 20.904c-.883 11.498-1.525 20.974-1.426 21.058.407.348 40.235-8.895 40.873-9.486.38-.352 1.216-9.371 1.856-20.041l1.165-19.399 16.961-27.99c9.329-15.394 17.658-29.052 18.508-30.35L136.23 84l-5.865.168c-3.226.093-7.665.313-9.865.489" fill="#1976D2" fill-rule="evenodd"/><path fill-opacity=".976" d="M6.826.702c-2.021.225-4.271 1.129-5 2.007C.744 4.012.447 26.735.213 126.131-.094 256.296-.221 252.55 4.545 254.379c.89.341 56.707.621 124.037.621 121.085 0 122.44-.022 124.418-2 1.978-1.978 2-3.333 2-125.345V4.31l-2.105-1.905C250.852.555 247.312.497 130.645.396 64.565.338 8.847.476 6.826.702M14 128v114h228V14H14v114m189.856-48.264-5.645.358-6.196 15.29c-6.571 16.215-7.601 18.363-8.42 17.544-.283-.282-3.362-7.244-6.842-15.471L170.425 82.5l-12.463.38c-6.854.209-13.233.663-14.176 1.009-1.261.462 1.325 2.572 9.796 7.991 6.33 4.049 11.248 7.623 10.929 7.943-.319.319-5.969 1.093-12.554 1.72-6.586.627-12.156 1.324-12.378 1.549-.983.993-3.027 71.421-2.079 71.651.55.133 7.525-1.248 15.5-3.07l14.5-3.312.623-10.931c.342-6.011.68-16.442.75-23.18.07-6.737.465-12.242.877-12.232.412.009 3.64 6.757 7.171 14.995 3.532 8.238 6.509 14.868 6.616 14.733.107-.136 3.019-7.446 6.471-16.246 3.452-8.8 6.662-16.428 7.134-16.95.48-.532.858 8.609.858 20.75 0 18.367.224 21.7 1.461 21.7 1.232 0 6.285-1.073 21.289-4.521l2.25-.517V79l-6.75.189c-3.713.104-9.29.35-12.394.547m-89.274 5.653c-8.205.611-15.07 1.561-15.255 2.111-.896 2.656-17.125 28.933-18.062 29.245-.591.197-4.312-6.023-8.27-13.823L65.8 88.741l-14.15.716c-7.783.393-17.737 1.014-22.121 1.379l-7.97.664 18.72 8.941C50.576 105.359 59 109.689 59 110.062c0 .374-4.163.985-9.25 1.358-5.087.373-10.656.92-12.375 1.217l-3.125.539 12.383 19.109c10.507 16.213 12.312 19.572 11.911 22.162-.966 6.232-2.866 37.565-2.311 38.119.461.461 32.52-6.249 38.897-8.141 1.376-.408 1.744-2.94 2.359-16.204.4-8.647 1.053-17.799 1.449-20.338.549-3.517 4.934-11.534 18.392-33.631C127.048 98.294 135 84.959 135 84.619c0-.723-.766-.694-20.418.77" fill="#1976D2" fill-rule="evenodd"/></svg>